PathFileType	4	(X/Y/Z)	G:\Shared drives\HIT\Data\HapticPilot\Subject1\Edited\walking_FB1_noFB1.trc
DataRate	CameraRate	NumFrames	NumMarkers	Units	OrigDataRate	OrigDataStartFrame	OrigNumFrames
50.00	50.00	      4	34	mm	50.00	1968	      3148
Frame#	Time	r_knee			r_shank(antsup)			r_ankle			r_calc			r_5meta			r_toe			L_knee			L_shank(ant_sup)			L_ankle			L_calc			L_5meta			L_toe			r_sh2			r_sh3			r_sh4			L_sh2			L_sh3			r_thigh1			r_thigh2			r_thigh3			r_thigh4			r_thigh5			L_thigh1			L_thigh2			L_thigh3			L_thigh4			r.ASIS			r.PSIS			L.ASIS			L.PSIS			C7			R_Shoulder			L_Shoulder			Sternum			
		X1	Y1	Z1	X2	Y2	Z2	X3	Y3	Z3	X4	Y4	Z4	X5	Y5	Z5	X6	Y6	Z6	X7	Y7	Z7	X8	Y8	Z8	X9	Y9	Z9	X10	Y10	Z10	X11	Y11	Z11	X12	Y12	Z12	X13	Y13	Z13	X14	Y14	Z14	X15	Y15	Z15	X16	Y16	Z16	X17	Y17	Z17	X18	Y18	Z18	X19	Y19	Z19	X20	Y20	Z20	X21	Y21	Z21	X22	Y22	Z22	X23	Y23	Z23	X24	Y24	Z24	X25	Y25	Z25	X26	Y26	Z26	X27	Y27	Z27	X28	Y28	Z28	X29	Y29	Z29	X30	Y30	Z30	X31	Y31	Z31	X32	Y32	Z32	X33	Y33	Z33	X34	Y34	Z34	

1968	39.340	972.22949	411.57117	563.33160	1018.61285	404.46030	487.60101	1139.83728	436.15262	118.41682	1083.07007	495.12927	52.64703	1273.41809	414.98605	95.64126	1290.08435	468.07297	155.71519	703.48126	700.78302	555.65625	695.36603	694.52875	430.46478	516.79492	674.20453	122.65826	429.48892	629.05750	91.37939	668.08545	640.31152	67.95679	625.02289	700.78894	40.99070	1062.60425	406.99777	376.04071	949.33533	414.32062	458.68317	983.02155	415.26642	347.29474	615.33380	712.86591	472.31683	570.26672	707.15289	358.23978	904.72778	376.23477	880.77643	947.59338	374.98111	775.70831	916.35425	368.59750	725.55780	802.47485	385.69662	832.53131	856.56354	396.46179	728.75543	850.78912	732.40460	802.73682	825.83374	718.47955	667.33850	734.61389	749.09241	823.02106	715.40588	723.80499	688.49298	892.86340	437.24738	1062.78650	704.37927	522.07538	1078.96643	904.09760	692.26440	1063.42126	713.07733	603.97046	1082.07849	805.30212	578.15131	1573.25781	845.01526	407.96091	1536.67957	882.22015	752.56848	1529.30981	944.85284	563.65601	1489.91931	
1969	39.360	980.89417	410.44714	562.23993	1023.06091	406.72757	484.06613	1128.06372	440.10806	112.92780	1065.11169	497.33942	54.70321	1258.21936	422.55765	82.95540	1278.71558	476.40472	141.32341	707.85071	698.96344	551.29730	694.60144	693.21283	426.40591	497.32642	675.54755	128.91833	408.92911	630.45392	102.43080	646.04443	640.82288	65.55006	600.80341	700.96210	40.86353	1061.21216	410.90369	370.35205	952.29620	412.86118	458.58911	980.67584	415.00546	345.84998	616.56317	712.53339	471.92737	565.01733	707.24744	361.12448	911.30634	371.82605	883.00464	958.18475	373.75620	779.95544	928.35797	367.18701	728.16711	810.92749	381.30609	831.28424	867.63397	392.64523	729.29956	855.01062	728.83716	798.84076	831.08185	713.52936	663.09149	739.15344	747.41412	818.60651	720.09729	721.96057	684.42029	895.22388	433.65503	1062.81140	707.17120	522.09290	1075.24670	908.13184	688.60297	1058.96545	716.20013	603.91150	1077.48767	807.28387	575.37390	1570.19727	846.59204	404.84235	1532.76660	885.25842	749.63171	1526.03101	947.09009	560.14288	1486.60681	
1970	39.380	979.58875	408.76038	561.94757	1025.21082	406.98398	483.81131	1118.10242	442.04260	110.73649	1047.78906	497.87930	58.73016	1243.82642	428.23889	71.01559	1268.78162	483.12546	126.32532	717.20203	697.33435	547.34570	697.10504	692.60004	422.46344	480.61990	676.48737	138.71954	391.61041	630.92798	118.61967	624.27521	641.54736	61.85876	576.98077	700.95056	41.30849	1062.32861	412.40619	369.70428	954.08704	409.94897	458.60138	981.83710	413.14407	345.67285	621.82635	711.28345	472.81146	563.74036	706.21143	365.56070	918.75061	369.56873	884.07971	966.13696	373.42331	781.18402	934.84247	368.51971	729.09534	817.83881	375.94293	832.99030	873.04559	390.17688	730.82233	861.74384	725.04187	796.88055	839.96631	709.58783	660.87524	745.67456	744.21112	814.75549	728.73187	718.66284	680.34460	898.16650	430.33057	1063.98755	710.15350	521.42999	1073.56836	912.20917	684.70319	1056.36780	719.53278	603.43738	1074.45447	809.55566	572.26428	1569.26758	847.90912	401.47021	1530.51221	888.75830	746.54547	1524.58521	949.50629	556.50787	1485.16675	
1971	39.400	979.05890	406.11365	564.23682	1026.88562	405.69138	484.60135	1102.21814	440.86316	108.65269	1027.51050	497.61203	61.39911	1224.29578	428.07797	58.67123	1253.26917	482.61807	112.28316	732.06757	696.84137	543.76422	704.15479	693.33893	419.46793	468.58261	677.08630	152.58232	379.97870	630.26648	141.74467	604.11414	641.79071	58.62631	554.57318	700.25897	42.66851	1060.73254	412.09689	369.52545	954.97961	407.24823	461.31970	979.32404	410.60553	347.73657	634.11835	710.18652	475.93018	567.66791	704.24475	372.86118	924.44080	369.54465	884.58087	968.58667	373.53943	780.56287	935.72009	368.81094	729.08258	821.86420	373.31512	836.48419	873.59058	388.80399	732.72302	872.25256	720.66681	796.84961	853.68542	706.28571	660.13367	754.73254	740.07251	811.34705	742.42712	714.97626	676.34363	900.88013	427.31421	1066.90649	712.81598	518.97571	1074.36182	914.59839	681.40790	1056.02600	722.70923	601.33752	1073.73828	812.00854	568.91620	1570.24109	849.44019	398.01105	1530.37720	891.76410	743.26904	1525.43542	951.68463	553.03802	1486.15820	
